<svg id="Layer_1" data-name="Layer 1" xmlns="http://www.w3.org/2000/svg" viewBox="0 0 27.27 27.08">
  <defs>
    <style>
      .cls-1 {
        fill: #888;
      }
    </style>
  </defs>
  <title>star-empty</title>
  <path class="cls-1" d="M293.36,415.72l-8.07.62a1,1,0,0,0-.6,1.73l5.93,5.51a1,1,0,0,1,.29,1L289,432.75a1,1,0,0,0,1.51,1.07l6.9-4.42a1,1,0,0,1,1.07,0l7,4.43a1,1,0,0,0,1.5-1.09l-2-8.19a1,1,0,0,1,.3-1l6-5.5a1,1,0,0,0-.59-1.74l-7.9-.62a1,1,0,0,1-.85-.62l-3.06-7.56a1,1,0,0,0-1.87,0l-2.81,7.51A1,1,0,0,1,293.36,415.72Z" transform="translate(-284.37 -406.91)"/>
</svg>
