<svg width="21" height="20" viewBox="0 0 21 20" fill="none" xmlns="http://www.w3.org/2000/svg">
<path fill-rule="evenodd" clip-rule="evenodd" d="M0.299683 0.839233H3.80233H4.62213L4.78291 1.61096L5.24024 3.80618H18.8431H20.0235L19.8295 4.924L18.7993 10.8579L18.66 11.66H17.8129H6.87647L7.30062 13.696H17.8129V15.616H6.48081H5.66101L5.50023 14.8443L3.43985 4.95445L4.42044 4.76618L3.43985 4.95445L2.98252 2.75923H0.299683V0.839233ZM5.64024 5.72618L6.47647 9.74005H16.9658L17.6626 5.72618H5.64024ZM9.1758 18.0054C9.1758 18.8889 8.4316 19.6034 7.51119 19.6034C6.59075 19.6034 5.84656 18.8889 5.84656 18.0054C5.84656 17.1218 6.59075 16.4261 7.51119 16.4261C8.4316 16.4261 9.1758 17.1218 9.1758 18.0054ZM15.7534 19.6034C16.6738 19.6034 17.418 18.8889 17.418 18.0054C17.418 17.1218 16.6738 16.4261 15.7534 16.4261C14.8329 16.4261 14.0887 17.1218 14.0887 18.0054C14.0887 18.8889 14.8329 19.6034 15.7534 19.6034Z" fill="white"/>
</svg>
