<svg width="28" height="28" viewBox="0 0 28 28" fill="none" xmlns="http://www.w3.org/2000/svg">
<path d="M9.34767 9.55754L1.27749 10.1802C0.408274 10.2473 0.035128 11.3169 0.674031 11.9101L6.60692 17.4182C6.87022 17.6626 6.98215 18.0295 6.90013 18.3793L4.97324 26.5972C4.76815 27.4718 5.73084 28.1523 6.48692 27.6671L13.3825 23.242C13.7093 23.0323 14.1278 23.0307 14.4562 23.2378L21.4844 27.6716C22.2467 28.1525 23.2062 27.4587 22.9883 26.5841L20.9476 18.3931C20.8587 18.0361 20.9729 17.6592 21.245 17.4117L27.2897 11.912C27.9377 11.3224 27.5682 10.2438 26.6948 10.1754L18.7966 9.55674C18.4189 9.52716 18.0904 9.28671 17.948 8.93566L14.882 1.37656C14.5395 0.532163 13.3383 0.548429 13.0188 1.40179L10.2073 8.91114C10.0708 9.27546 9.73554 9.52761 9.34767 9.55754Z" fill="#FFD017"/>
</svg>
